<svg xmlns="http://www.w3.org/2000/svg" width="3882.001718750002" height="850.0"><line x1="39.810625" x2="3852.001718750002" y1="25.0" y2="25.0" stroke="#1967d2" stroke-width="1" /><line x1="39.810625" x2="3852.001718750002" y1="75.0" y2="75.0" stroke="#1967d2" stroke-width="1" /><line x1="39.810625" x2="3852.001718750002" y1="125.0" y2="125.0" stroke="#1967d2" stroke-width="1" /><line x1="39.810625" x2="3852.001718750002" y1="175.0" y2="175.0" stroke="#1967d2" stroke-width="1" /><line x1="39.810625" x2="3852.001718750002" y1="225.0" y2="225.0" stroke="#1967d2" stroke-width="1" /><line x1="39.810625" x2="3852.001718750002" y1="275.0" y2="275.0" stroke="#1967d2" stroke-width="1" /><line x1="39.810625" x2="3852.001718750002" y1="325.0" y2="325.0" stroke="#1967d2" stroke-width="1" /><line x1="39.810625" x2="3852.001718750002" y1="375.0" y2="375.0" stroke="#1967d2" stroke-width="1" /><line x1="39.810625" x2="3852.001718750002" y1="425.0" y2="425.0" stroke="#1967d2" stroke-width="1" /><line x1="39.810625" x2="3852.001718750002" y1="475.0" y2="475.0" stroke="#1967d2" stroke-width="1" /><line x1="39.810625" x2="3852.001718750002" y1="525.0" y2="525.0" stroke="#1967d2" stroke-width="1" /><line x1="39.810625" x2="3852.001718750002" y1="575.0" y2="575.0" stroke="#1967d2" stroke-width="1" /><line x1="39.810625" x2="3852.001718750002" y1="625.0" y2="625.0" stroke="#1967d2" stroke-width="1" /><line x1="39.810625" x2="3852.001718750002" y1="675.0" y2="675.0" stroke="#1967d2" stroke-width="1" /><line x1="39.810625" x2="3852.001718750002" y1="725.0" y2="725.0" stroke="#1967d2" stroke-width="1" /><line x1="39.810625" x2="3852.001718750002" y1="775.0" y2="775.0" stroke="#1967d2" stroke-width="1" /><line x1="39.810625" x2="3852.001718750002" y1="825.0" y2="825.0" stroke="#1967d2" stroke-width="1" /><line x1="254.4471484375" x2="254.4471484375" y1="25.0" y2="75.0" stroke="black" stroke-width="3" /><line x1="364.09894531250006" x2="364.09894531250006" y1="25.0" y2="125.0" stroke="black" stroke-width="3" /><line x1="473.75074218750007" x2="473.75074218750007" y1="25.0" y2="175.0" stroke="black" stroke-width="3" /><line x1="583.4025390625001" x2="583.4025390625001" y1="25.0" y2="225.0" stroke="black" stroke-width="3" /><line x1="693.0543359375001" x2="693.0543359375001" y1="25.0" y2="275.0" stroke="black" stroke-width="3" /><line x1="802.7061328125002" x2="802.7061328125002" y1="25.0" y2="325.0" stroke="black" stroke-width="3" /><line x1="912.3579296875002" x2="912.3579296875002" y1="25.0" y2="375.0" stroke="black" stroke-width="3" /><line x1="1022.0097265625003" x2="1022.0097265625003" y1="25.0" y2="425.0" stroke="black" stroke-width="3" /><line x1="1131.6615234375004" x2="1131.6615234375004" y1="25.0" y2="475.0" stroke="black" stroke-width="3" /><line x1="1241.3133203125003" x2="1241.3133203125003" y1="25.0" y2="525.0" stroke="black" stroke-width="3" /><line x1="1355.4187304687503" x2="1355.4187304687503" y1="25.0" y2="575.0" stroke="black" stroke-width="3" /><line x1="1473.9777539062502" x2="1473.9777539062502" y1="25.0" y2="625.0" stroke="black" stroke-width="3" /><line x1="1592.5367773437501" x2="1592.5367773437501" y1="25.0" y2="675.0" stroke="black" stroke-width="3" /><line x1="1711.09580078125" x2="1711.09580078125" y1="25.0" y2="725.0" stroke="black" stroke-width="3" /><line x1="1829.65482421875" x2="1829.65482421875" y1="25.0" y2="775.0" stroke="black" stroke-width="3" /><line x1="1948.21384765625" x2="1948.21384765625" y1="25.0" y2="825.0" stroke="black" stroke-width="3" /><line x1="2061.276640625" x2="2061.276640625" y1="25.0" y2="75.0" stroke="black" stroke-width="3" /><line x1="2168.843203125" x2="2168.843203125" y1="25.0" y2="125.0" stroke="black" stroke-width="3" /><line x1="2276.409765625" x2="2276.409765625" y1="25.0" y2="175.0" stroke="black" stroke-width="3" /><line x1="2383.9763281250002" x2="2383.9763281250002" y1="25.0" y2="225.0" stroke="black" stroke-width="3" /><line x1="2491.5428906250004" x2="2491.5428906250004" y1="25.0" y2="275.0" stroke="black" stroke-width="3" /><line x1="2599.1094531250005" x2="2599.1094531250005" y1="25.0" y2="325.0" stroke="black" stroke-width="3" /><line x1="2706.6760156250007" x2="2706.6760156250007" y1="25.0" y2="375.0" stroke="black" stroke-width="3" /><line x1="2814.242578125001" x2="2814.242578125001" y1="25.0" y2="425.0" stroke="black" stroke-width="3" /><line x1="2921.809140625001" x2="2921.809140625001" y1="25.0" y2="475.0" stroke="black" stroke-width="3" /><line x1="3029.375703125001" x2="3029.375703125001" y1="25.0" y2="525.0" stroke="black" stroke-width="3" /><line x1="3141.3958789062513" x2="3141.3958789062513" y1="25.0" y2="575.0" stroke="black" stroke-width="3" /><line x1="3257.8696679687514" x2="3257.8696679687514" y1="25.0" y2="625.0" stroke="black" stroke-width="3" /><line x1="3374.3434570312515" x2="3374.3434570312515" y1="25.0" y2="675.0" stroke="black" stroke-width="3" /><line x1="3490.8172460937517" x2="3490.8172460937517" y1="25.0" y2="725.0" stroke="black" stroke-width="3" /><line x1="3607.291035156252" x2="3607.291035156252" y1="25.0" y2="775.0" stroke="black" stroke-width="3" /><line x1="3723.764824218752" x2="3723.764824218752" y1="25.0" y2="825.0" stroke="black" stroke-width="3" /><rect x="10.0" y="5.0" width="59.62125" height="40" stroke="black" fill="white" stroke-width="0" /><text x="39.810625" y="25.0" dominant-baseline="middle" text-anchor="middle" font-size="14px" font-family="Arial">(-1, -1): </text><rect x="10.0" y="55.0" width="59.62125" height="40" stroke="black" fill="white" stroke-width="0" /><text x="39.810625" y="75.0" dominant-baseline="middle" text-anchor="middle" font-size="14px" font-family="Arial">(0, 0): </text><rect x="10.0" y="105.0" width="59.62125" height="40" stroke="black" fill="white" stroke-width="0" /><text x="39.810625" y="125.0" dominant-baseline="middle" text-anchor="middle" font-size="14px" font-family="Arial">(0, 1): </text><rect x="10.0" y="155.0" width="59.62125" height="40" stroke="black" fill="white" stroke-width="0" /><text x="39.810625" y="175.0" dominant-baseline="middle" text-anchor="middle" font-size="14px" font-family="Arial">(0, 2): </text><rect x="10.0" y="205.0" width="59.62125" height="40" stroke="black" fill="white" stroke-width="0" /><text x="39.810625" y="225.0" dominant-baseline="middle" text-anchor="middle" font-size="14px" font-family="Arial">(0, 3): </text><rect x="10.0" y="255.0" width="59.62125" height="40" stroke="black" fill="white" stroke-width="0" /><text x="39.810625" y="275.0" dominant-baseline="middle" text-anchor="middle" font-size="14px" font-family="Arial">(1, 0): </text><rect x="10.0" y="305.0" width="59.62125" height="40" stroke="black" fill="white" stroke-width="0" /><text x="39.810625" y="325.0" dominant-baseline="middle" text-anchor="middle" font-size="14px" font-family="Arial">(1, 1): </text><rect x="10.0" y="355.0" width="59.62125" height="40" stroke="black" fill="white" stroke-width="0" /><text x="39.810625" y="375.0" dominant-baseline="middle" text-anchor="middle" font-size="14px" font-family="Arial">(1, 2): </text><rect x="10.0" y="405.0" width="59.62125" height="40" stroke="black" fill="white" stroke-width="0" /><text x="39.810625" y="425.0" dominant-baseline="middle" text-anchor="middle" font-size="14px" font-family="Arial">(1, 3): </text><rect x="10.0" y="455.0" width="59.62125" height="40" stroke="black" fill="white" stroke-width="0" /><text x="39.810625" y="475.0" dominant-baseline="middle" text-anchor="middle" font-size="14px" font-family="Arial">(2, 0): </text><rect x="10.0" y="505.0" width="59.62125" height="40" stroke="black" fill="white" stroke-width="0" /><text x="39.810625" y="525.0" dominant-baseline="middle" text-anchor="middle" font-size="14px" font-family="Arial">(2, 1): </text><rect x="10.0" y="555.0" width="59.62125" height="40" stroke="black" fill="white" stroke-width="0" /><text x="39.810625" y="575.0" dominant-baseline="middle" text-anchor="middle" font-size="14px" font-family="Arial">(2, 2): </text><rect x="10.0" y="605.0" width="59.62125" height="40" stroke="black" fill="white" stroke-width="0" /><text x="39.810625" y="625.0" dominant-baseline="middle" text-anchor="middle" font-size="14px" font-family="Arial">(2, 3): </text><rect x="10.0" y="655.0" width="59.62125" height="40" stroke="black" fill="white" stroke-width="0" /><text x="39.810625" y="675.0" dominant-baseline="middle" text-anchor="middle" font-size="14px" font-family="Arial">(3, 0): </text><rect x="10.0" y="705.0" width="59.62125" height="40" stroke="black" fill="white" stroke-width="0" /><text x="39.810625" y="725.0" dominant-baseline="middle" text-anchor="middle" font-size="14px" font-family="Arial">(3, 1): </text><rect x="10.0" y="755.0" width="59.62125" height="40" stroke="black" fill="white" stroke-width="0" /><text x="39.810625" y="775.0" dominant-baseline="middle" text-anchor="middle" font-size="14px" font-family="Arial">(3, 2): </text><rect x="10.0" y="805.0" width="59.62125" height="40" stroke="black" fill="white" stroke-width="0" /><text x="39.810625" y="825.0" dominant-baseline="middle" text-anchor="middle" font-size="14px" font-family="Arial">(3, 3): </text><rect x="89.62125" y="5.0" width="40" height="40" stroke="black" fill="white" stroke-width="1" /><text x="109.62125" y="25.0" dominant-baseline="middle" text-anchor="middle" font-size="18px" font-family="Arial">X</text><rect x="149.62125" y="5.0" width="40" height="40" stroke="black" fill="white" stroke-width="1" /><text x="169.62125" y="25.0" dominant-baseline="middle" text-anchor="middle" font-size="18px" font-family="Arial">H</text><rect x="209.62125" y="55.0" width="89.65179687500002" height="40" stroke="black" fill="white" stroke-width="1" /><text x="254.4471484375" y="75.0" dominant-baseline="middle" text-anchor="middle" font-size="14px" font-family="Arial">XX^(xx1-0)</text><rect x="209.62125" y="5.0" width="89.65179687500002" height="40" stroke="black" fill="white" stroke-width="1" /><text x="254.4471484375" y="25.0" dominant-baseline="middle" text-anchor="middle" font-size="14px" font-family="Arial">XX</text><rect x="319.27304687500003" y="105.0" width="89.65179687500002" height="40" stroke="black" fill="white" stroke-width="1" /><text x="364.09894531250006" y="125.0" dominant-baseline="middle" text-anchor="middle" font-size="14px" font-family="Arial">XX^(xx1-1)</text><rect x="319.27304687500003" y="5.0" width="89.65179687500002" height="40" stroke="black" fill="white" stroke-width="1" /><text x="364.09894531250006" y="25.0" dominant-baseline="middle" text-anchor="middle" font-size="14px" font-family="Arial">XX</text><rect x="428.92484375000004" y="155.0" width="89.65179687500002" height="40" stroke="black" fill="white" stroke-width="1" /><text x="473.75074218750007" y="175.0" dominant-baseline="middle" text-anchor="middle" font-size="14px" font-family="Arial">XX^(xx1-2)</text><rect x="428.92484375000004" y="5.0" width="89.65179687500002" height="40" stroke="black" fill="white" stroke-width="1" /><text x="473.75074218750007" y="25.0" dominant-baseline="middle" text-anchor="middle" font-size="14px" font-family="Arial">XX</text><rect x="538.5766406250001" y="205.0" width="89.65179687500002" height="40" stroke="black" fill="white" stroke-width="1" /><text x="583.4025390625001" y="225.0" dominant-baseline="middle" text-anchor="middle" font-size="14px" font-family="Arial">XX^(xx1-3)</text><rect x="538.5766406250001" y="5.0" width="89.65179687500002" height="40" stroke="black" fill="white" stroke-width="1" /><text x="583.4025390625001" y="25.0" dominant-baseline="middle" text-anchor="middle" font-size="14px" font-family="Arial">XX</text><rect x="648.2284375000002" y="255.0" width="89.65179687500002" height="40" stroke="black" fill="white" stroke-width="1" /><text x="693.0543359375001" y="275.0" dominant-baseline="middle" text-anchor="middle" font-size="14px" font-family="Arial">XX^(xx1-4)</text><rect x="648.2284375000002" y="5.0" width="89.65179687500002" height="40" stroke="black" fill="white" stroke-width="1" /><text x="693.0543359375001" y="25.0" dominant-baseline="middle" text-anchor="middle" font-size="14px" font-family="Arial">XX</text><rect x="757.8802343750002" y="305.0" width="89.65179687500002" height="40" stroke="black" fill="white" stroke-width="1" /><text x="802.7061328125002" y="325.0" dominant-baseline="middle" text-anchor="middle" font-size="14px" font-family="Arial">XX^(xx1-5)</text><rect x="757.8802343750002" y="5.0" width="89.65179687500002" height="40" stroke="black" fill="white" stroke-width="1" /><text x="802.7061328125002" y="25.0" dominant-baseline="middle" text-anchor="middle" font-size="14px" font-family="Arial">XX</text><rect x="867.5320312500003" y="355.0" width="89.65179687500002" height="40" stroke="black" fill="white" stroke-width="1" /><text x="912.3579296875002" y="375.0" dominant-baseline="middle" text-anchor="middle" font-size="14px" font-family="Arial">XX^(xx1-6)</text><rect x="867.5320312500003" y="5.0" width="89.65179687500002" height="40" stroke="black" fill="white" stroke-width="1" /><text x="912.3579296875002" y="25.0" dominant-baseline="middle" text-anchor="middle" font-size="14px" font-family="Arial">XX</text><rect x="977.1838281250003" y="405.0" width="89.65179687500002" height="40" stroke="black" fill="white" stroke-width="1" /><text x="1022.0097265625003" y="425.0" dominant-baseline="middle" text-anchor="middle" font-size="14px" font-family="Arial">XX^(xx1-7)</text><rect x="977.1838281250003" y="5.0" width="89.65179687500002" height="40" stroke="black" fill="white" stroke-width="1" /><text x="1022.0097265625003" y="25.0" dominant-baseline="middle" text-anchor="middle" font-size="14px" font-family="Arial">XX</text><rect x="1086.8356250000004" y="455.0" width="89.65179687500002" height="40" stroke="black" fill="white" stroke-width="1" /><text x="1131.6615234375004" y="475.0" dominant-baseline="middle" text-anchor="middle" font-size="14px" font-family="Arial">XX^(xx1-8)</text><rect x="1086.8356250000004" y="5.0" width="89.65179687500002" height="40" stroke="black" fill="white" stroke-width="1" /><text x="1131.6615234375004" y="25.0" dominant-baseline="middle" text-anchor="middle" font-size="14px" font-family="Arial">XX</text><rect x="1196.4874218750003" y="505.0" width="89.65179687500002" height="40" stroke="black" fill="white" stroke-width="1" /><text x="1241.3133203125003" y="525.0" dominant-baseline="middle" text-anchor="middle" font-size="14px" font-family="Arial">XX^(xx1-9)</text><rect x="1196.4874218750003" y="5.0" width="89.65179687500002" height="40" stroke="black" fill="white" stroke-width="1" /><text x="1241.3133203125003" y="25.0" dominant-baseline="middle" text-anchor="middle" font-size="14px" font-family="Arial">XX</text><rect x="1306.1392187500003" y="555.0" width="98.55902343750002" height="40" stroke="black" fill="white" stroke-width="1" /><text x="1355.4187304687503" y="575.0" dominant-baseline="middle" text-anchor="middle" font-size="14px" font-family="Arial">XX^(xx1-10)</text><rect x="1306.1392187500003" y="5.0" width="98.55902343750002" height="40" stroke="black" fill="white" stroke-width="1" /><text x="1355.4187304687503" y="25.0" dominant-baseline="middle" text-anchor="middle" font-size="14px" font-family="Arial">XX</text><rect x="1424.6982421875002" y="605.0" width="98.55902343750002" height="40" stroke="black" fill="white" stroke-width="1" /><text x="1473.9777539062502" y="625.0" dominant-baseline="middle" text-anchor="middle" font-size="14px" font-family="Arial">XX^(xx1-11)</text><rect x="1424.6982421875002" y="5.0" width="98.55902343750002" height="40" stroke="black" fill="white" stroke-width="1" /><text x="1473.9777539062502" y="25.0" dominant-baseline="middle" text-anchor="middle" font-size="14px" font-family="Arial">XX</text><rect x="1543.2572656250002" y="655.0" width="98.55902343750002" height="40" stroke="black" fill="white" stroke-width="1" /><text x="1592.5367773437501" y="675.0" dominant-baseline="middle" text-anchor="middle" font-size="14px" font-family="Arial">XX^(xx1-12)</text><rect x="1543.2572656250002" y="5.0" width="98.55902343750002" height="40" stroke="black" fill="white" stroke-width="1" /><text x="1592.5367773437501" y="25.0" dominant-baseline="middle" text-anchor="middle" font-size="14px" font-family="Arial">XX</text><rect x="1661.8162890625001" y="705.0" width="98.55902343750002" height="40" stroke="black" fill="white" stroke-width="1" /><text x="1711.09580078125" y="725.0" dominant-baseline="middle" text-anchor="middle" font-size="14px" font-family="Arial">XX^(xx1-13)</text><rect x="1661.8162890625001" y="5.0" width="98.55902343750002" height="40" stroke="black" fill="white" stroke-width="1" /><text x="1711.09580078125" y="25.0" dominant-baseline="middle" text-anchor="middle" font-size="14px" font-family="Arial">XX</text><rect x="1780.3753125" y="755.0" width="98.55902343750002" height="40" stroke="black" fill="white" stroke-width="1" /><text x="1829.65482421875" y="775.0" dominant-baseline="middle" text-anchor="middle" font-size="14px" font-family="Arial">XX^(xx1-14)</text><rect x="1780.3753125" y="5.0" width="98.55902343750002" height="40" stroke="black" fill="white" stroke-width="1" /><text x="1829.65482421875" y="25.0" dominant-baseline="middle" text-anchor="middle" font-size="14px" font-family="Arial">XX</text><rect x="1898.9343359375" y="805.0" width="98.55902343750002" height="40" stroke="black" fill="white" stroke-width="1" /><text x="1948.21384765625" y="825.0" dominant-baseline="middle" text-anchor="middle" font-size="14px" font-family="Arial">XX^(xx1-15)</text><rect x="1898.9343359375" y="5.0" width="98.55902343750002" height="40" stroke="black" fill="white" stroke-width="1" /><text x="1948.21384765625" y="25.0" dominant-baseline="middle" text-anchor="middle" font-size="14px" font-family="Arial">XX</text><rect x="2017.4933593749997" y="55.0" width="87.56656250000002" height="40" stroke="black" fill="white" stroke-width="1" /><text x="2061.276640625" y="75.0" dominant-baseline="middle" text-anchor="middle" font-size="14px" font-family="Arial">ZZ^(zz1-0)</text><rect x="2017.4933593749997" y="5.0" width="87.56656250000002" height="40" stroke="black" fill="white" stroke-width="1" /><text x="2061.276640625" y="25.0" dominant-baseline="middle" text-anchor="middle" font-size="14px" font-family="Arial">ZZ</text><rect x="2125.059921875" y="105.0" width="87.56656250000002" height="40" stroke="black" fill="white" stroke-width="1" /><text x="2168.843203125" y="125.0" dominant-baseline="middle" text-anchor="middle" font-size="14px" font-family="Arial">ZZ^(zz1-1)</text><rect x="2125.059921875" y="5.0" width="87.56656250000002" height="40" stroke="black" fill="white" stroke-width="1" /><text x="2168.843203125" y="25.0" dominant-baseline="middle" text-anchor="middle" font-size="14px" font-family="Arial">ZZ</text><rect x="2232.626484375" y="155.0" width="87.56656250000002" height="40" stroke="black" fill="white" stroke-width="1" /><text x="2276.409765625" y="175.0" dominant-baseline="middle" text-anchor="middle" font-size="14px" font-family="Arial">ZZ^(zz1-2)</text><rect x="2232.626484375" y="5.0" width="87.56656250000002" height="40" stroke="black" fill="white" stroke-width="1" /><text x="2276.409765625" y="25.0" dominant-baseline="middle" text-anchor="middle" font-size="14px" font-family="Arial">ZZ</text><rect x="2340.193046875" y="205.0" width="87.56656250000002" height="40" stroke="black" fill="white" stroke-width="1" /><text x="2383.9763281250002" y="225.0" dominant-baseline="middle" text-anchor="middle" font-size="14px" font-family="Arial">ZZ^(zz1-3)</text><rect x="2340.193046875" y="5.0" width="87.56656250000002" height="40" stroke="black" fill="white" stroke-width="1" /><text x="2383.9763281250002" y="25.0" dominant-baseline="middle" text-anchor="middle" font-size="14px" font-family="Arial">ZZ</text><rect x="2447.7596093750003" y="255.0" width="87.56656250000002" height="40" stroke="black" fill="white" stroke-width="1" /><text x="2491.5428906250004" y="275.0" dominant-baseline="middle" text-anchor="middle" font-size="14px" font-family="Arial">ZZ^(zz1-4)</text><rect x="2447.7596093750003" y="5.0" width="87.56656250000002" height="40" stroke="black" fill="white" stroke-width="1" /><text x="2491.5428906250004" y="25.0" dominant-baseline="middle" text-anchor="middle" font-size="14px" font-family="Arial">ZZ</text><rect x="2555.3261718750005" y="305.0" width="87.56656250000002" height="40" stroke="black" fill="white" stroke-width="1" /><text x="2599.1094531250005" y="325.0" dominant-baseline="middle" text-anchor="middle" font-size="14px" font-family="Arial">ZZ^(zz1-5)</text><rect x="2555.3261718750005" y="5.0" width="87.56656250000002" height="40" stroke="black" fill="white" stroke-width="1" /><text x="2599.1094531250005" y="25.0" dominant-baseline="middle" text-anchor="middle" font-size="14px" font-family="Arial">ZZ</text><rect x="2662.8927343750006" y="355.0" width="87.56656250000002" height="40" stroke="black" fill="white" stroke-width="1" /><text x="2706.6760156250007" y="375.0" dominant-baseline="middle" text-anchor="middle" font-size="14px" font-family="Arial">ZZ^(zz1-6)</text><rect x="2662.8927343750006" y="5.0" width="87.56656250000002" height="40" stroke="black" fill="white" stroke-width="1" /><text x="2706.6760156250007" y="25.0" dominant-baseline="middle" text-anchor="middle" font-size="14px" font-family="Arial">ZZ</text><rect x="2770.4592968750007" y="405.0" width="87.56656250000002" height="40" stroke="black" fill="white" stroke-width="1" /><text x="2814.242578125001" y="425.0" dominant-baseline="middle" text-anchor="middle" font-size="14px" font-family="Arial">ZZ^(zz1-7)</text><rect x="2770.4592968750007" y="5.0" width="87.56656250000002" height="40" stroke="black" fill="white" stroke-width="1" /><text x="2814.242578125001" y="25.0" dominant-baseline="middle" text-anchor="middle" font-size="14px" font-family="Arial">ZZ</text><rect x="2878.025859375001" y="455.0" width="87.56656250000002" height="40" stroke="black" fill="white" stroke-width="1" /><text x="2921.809140625001" y="475.0" dominant-baseline="middle" text-anchor="middle" font-size="14px" font-family="Arial">ZZ^(zz1-8)</text><rect x="2878.025859375001" y="5.0" width="87.56656250000002" height="40" stroke="black" fill="white" stroke-width="1" /><text x="2921.809140625001" y="25.0" dominant-baseline="middle" text-anchor="middle" font-size="14px" font-family="Arial">ZZ</text><rect x="2985.592421875001" y="505.0" width="87.56656250000002" height="40" stroke="black" fill="white" stroke-width="1" /><text x="3029.375703125001" y="525.0" dominant-baseline="middle" text-anchor="middle" font-size="14px" font-family="Arial">ZZ^(zz1-9)</text><rect x="2985.592421875001" y="5.0" width="87.56656250000002" height="40" stroke="black" fill="white" stroke-width="1" /><text x="3029.375703125001" y="25.0" dominant-baseline="middle" text-anchor="middle" font-size="14px" font-family="Arial">ZZ</text><rect x="3093.158984375001" y="555.0" width="96.47378906250002" height="40" stroke="black" fill="white" stroke-width="1" /><text x="3141.3958789062513" y="575.0" dominant-baseline="middle" text-anchor="middle" font-size="14px" font-family="Arial">ZZ^(zz1-10)</text><rect x="3093.158984375001" y="5.0" width="96.47378906250002" height="40" stroke="black" fill="white" stroke-width="1" /><text x="3141.3958789062513" y="25.0" dominant-baseline="middle" text-anchor="middle" font-size="14px" font-family="Arial">ZZ</text><rect x="3209.6327734375013" y="605.0" width="96.47378906250002" height="40" stroke="black" fill="white" stroke-width="1" /><text x="3257.8696679687514" y="625.0" dominant-baseline="middle" text-anchor="middle" font-size="14px" font-family="Arial">ZZ^(zz1-11)</text><rect x="3209.6327734375013" y="5.0" width="96.47378906250002" height="40" stroke="black" fill="white" stroke-width="1" /><text x="3257.8696679687514" y="25.0" dominant-baseline="middle" text-anchor="middle" font-size="14px" font-family="Arial">ZZ</text><rect x="3326.1065625000015" y="655.0" width="96.47378906250002" height="40" stroke="black" fill="white" stroke-width="1" /><text x="3374.3434570312515" y="675.0" dominant-baseline="middle" text-anchor="middle" font-size="14px" font-family="Arial">ZZ^(zz1-12)</text><rect x="3326.1065625000015" y="5.0" width="96.47378906250002" height="40" stroke="black" fill="white" stroke-width="1" /><text x="3374.3434570312515" y="25.0" dominant-baseline="middle" text-anchor="middle" font-size="14px" font-family="Arial">ZZ</text><rect x="3442.5803515625016" y="705.0" width="96.47378906250002" height="40" stroke="black" fill="white" stroke-width="1" /><text x="3490.8172460937517" y="725.0" dominant-baseline="middle" text-anchor="middle" font-size="14px" font-family="Arial">ZZ^(zz1-13)</text><rect x="3442.5803515625016" y="5.0" width="96.47378906250002" height="40" stroke="black" fill="white" stroke-width="1" /><text x="3490.8172460937517" y="25.0" dominant-baseline="middle" text-anchor="middle" font-size="14px" font-family="Arial">ZZ</text><rect x="3559.0541406250018" y="755.0" width="96.47378906250002" height="40" stroke="black" fill="white" stroke-width="1" /><text x="3607.291035156252" y="775.0" dominant-baseline="middle" text-anchor="middle" font-size="14px" font-family="Arial">ZZ^(zz1-14)</text><rect x="3559.0541406250018" y="5.0" width="96.47378906250002" height="40" stroke="black" fill="white" stroke-width="1" /><text x="3607.291035156252" y="25.0" dominant-baseline="middle" text-anchor="middle" font-size="14px" font-family="Arial">ZZ</text><rect x="3675.527929687502" y="805.0" width="96.47378906250002" height="40" stroke="black" fill="white" stroke-width="1" /><text x="3723.764824218752" y="825.0" dominant-baseline="middle" text-anchor="middle" font-size="14px" font-family="Arial">ZZ^(zz1-15)</text><rect x="3675.527929687502" y="5.0" width="96.47378906250002" height="40" stroke="black" fill="white" stroke-width="1" /><text x="3723.764824218752" y="25.0" dominant-baseline="middle" text-anchor="middle" font-size="14px" font-family="Arial">ZZ</text><rect x="3792.001718750002" y="5.0" width="40" height="40" stroke="black" fill="white" stroke-width="1" /><text x="3812.001718750002" y="25.0" dominant-baseline="middle" text-anchor="middle" font-size="18px" font-family="Arial">H</text></svg>